<svg xmlns="http://www.w3.org/2000/svg" viewBox="0 0 1200 520" role="img" aria-labelledby="title"><title id="title">K and S signal mark logo direction</title><rect width="1200" height="520" rx="44" fill="#F5F6F7"/><path d="M116 379V140h62v82l84-82h83l-108 105 114 134h-87l-86-103v103z" fill="#111315"/><path d="M394 158c-24-13-49-18-76-12l-12-21c42-15 86-9 125 14zM416 205c-26-17-61-20-92-4l-12-22c40-22 88-19 126 8zM437 253c-30-22-74-21-104 2l-14-22c39-30 94-31 134-2z" fill="#2F63D8"/><circle cx="377" cy="297" r="16" fill="#2F63D8"/><text x="528" y="236" fill="#111315" font-family="Arial, Helvetica, sans-serif" font-size="77" font-weight="700" letter-spacing="1">KAMLESH &amp; SONS</text><text x="532" y="307" fill="#292D32" font-family="Arial, Helvetica, sans-serif" font-size="31" font-weight="600" letter-spacing="9">SMART TECH. HUMAN HELP.</text><text x="532" y="389" fill="#6B737D" font-family="Arial, Helvetica, sans-serif" font-size="22" letter-spacing="3">A TECHNICAL BUT WELCOMING RETAIL IDENTITY</text></svg>
